# xmcd CD database file
#
# Track frame offsets:
#	150
#	11108
#	25839
#	46722
#	58447
#	71821
#	85836
#	95192
#	107274
#	122120
#	141881
#
# Disc length: 2100 seconds
#
# Revision: 0
# Processed by: cddbd v1.5.2PL0 Copyright (c) Steve Scherf et al.
# Submitted via: CDex 1.70beta2
#
DISCID=9808320b
DTITLE=RC - Cdn. ON - OVM - Real Country Wt. Some of the Valley's Best
DYEAR=1900
DGENRE=Country
TTITLE0=othing Else To Lose - Fred Ducharme
TTITLE1=A Load of Country Music - Howard Hayes
TTITLE2=Like I Used To Do - Ron Moores
TTITLE3=Ket It All Rollin' - Ron MxMunn
TTITLE4=Fiddle and Slide Guitar - Neville Wells
TTITLE5=Double Trouble Me - Johnnie Johnson
TTITLE6=Struggles of the Day - Andy Clark
TTITLE7=Sing Me A Sad Old Country Song - Mike Fahey
TTITLE8=The Bpttle Filled With Wine - Doug Sinclair
TTITLE9=Small Town - Ron Martin
TTITLE10=Bringing Mary Home - Vic Fortington
EXTD=
EXTT0=
EXTT1=
EXTT2=
EXTT3=
EXTT4=
EXTT5=
EXTT6=
EXTT7=
EXTT8=
EXTT9=
EXTT10=
PLAYORDER=
